<svg fill="none" height="24" viewBox="0 0 24 24" width="24" xmlns="http://www.w3.org/2000/svg"><g transform="scale(.075)"><path d="m0 0h320v320h-320z" fill="#fff"/><path d="m250 50v-10h10v10h10v10h10v10h10v10h-10v10h-10v10h-10-20v-10h-10v-30h10v-10z" fill="#c3c3c3"/><path d="m195 195h100v50h-100z" stroke="#c3c3c3" stroke-width="10"/><path d="m30 180h10v10h-10z" fill="#c3c3c3"/><path d="m30 220h10v10h-10z" fill="#c3c3c3"/><path d="m10 200h10v10h-10z" fill="#c3c3c3"/><path d="m20 210h10v10h-10z" fill="#c3c3c3"/><path d="m20 190h10v10h-10z" fill="#c3c3c3"/><path d="m50 230v10h-10v-10z" fill="#c3c3c3"/><path d="m60 240v10h-10v-10z" fill="#c3c3c3"/><path d="m70 230v10h-10v-10z" fill="#c3c3c3"/><path d="m80 220v10h-10v-10z" fill="#c3c3c3"/><path d="m240 250v30h-30v10h40v-40z" fill="#c3c3c3"/><path d="m200 280v-10h10v10h10v10h-10v10h-10v-10h-10v-10z" fill="#c3c3c3"/><path d="m45 85h210v130h-210z" stroke="#c3c3c3" stroke-width="10"/><path d="m0 50h100v60h-100z" fill="#c3c3c3"/><path d="m200 270v-10h10v10h10v10h-10v10h-10v-10h-10v-10z" fill="#3f48cc"/><path d="m250 240v30h-30v10h40v-40z" fill="#000"/><path d="m55 75h210v130h-210z" stroke="#000" stroke-width="10"/><path d="m15 45h90v50h-90z" fill="#22b14c" stroke="#000" stroke-width="10"/><path d="m205 185h100v50h-100z" fill="#b5e61d" stroke="#000" stroke-width="10"/><g fill="#000"><path d="m260 50v-10h10v10h10v10h10v10h10v10h-10v10h-10v10h-10-20v-10h-10v-30h10v-10z"/><path d="m40 180h10v10h-10z"/><path d="m40 220h10v10h-10z"/><path d="m20 200h10v10h-10z"/><path d="m60 170v10h-10v-10z"/><path d="m30 210h10v10h-10z"/><path d="m30 190h10v10h-10z"/><path d="m60 180h10v10h-10z"/><path d="m60 220h10v10h-10z"/><path d="m80 200h10v10h-10z"/><path d="m60 230v10h-10v-10z"/><path d="m70 210h10v10h-10z"/><path d="m70 190h10v10h-10z"/></g><path d="m50 180v10h-10v10h-10v10h10v10h10v10h10v-10h10v-10h10v-10h-10v-10h-10v-10z" fill="#b5e61d"/></g></svg>