<svg fill="none" height="256" viewBox="0 0 256 256" width="256" xmlns="http://www.w3.org/2000/svg"><path d="m0 0h256v256h-256z" fill="#fff" stroke-width=".8"/><path d="m200 40v-8h8v8h8v8h8v8h8v8h-8v8h-8v8h-24v-8h-8v-24h8v-8z" fill="#c3c3c3" stroke-width=".8"/><path d="m156 156h80v40h-80z" stroke="#c3c3c3" stroke-width="10"/><g fill="#c3c3c3" stroke-width=".8"><path d="m24 144h8v8h-8z"/><path d="m24 176h8v8h-8z"/><path d="m8 160h8v8h-8z"/><path d="m16 168h8v8h-8z"/><path d="m16 152h8v8h-8z"/><path d="m40 184v8h-8v-8z"/><path d="m48 192v8h-8v-8z"/><path d="m56 184v8h-8v-8z"/><path d="m64 176v8h-8v-8z"/><path d="m192 200v24h-24v8h32v-32z"/><path d="m160 224v-8h8v8h8v8h-8v8h-8v-8h-8v-8z"/></g><path d="m36 68h168v104h-168z" stroke="#c3c3c3" stroke-width="10"/><g stroke-width=".8"><path d="m0 40h80v48h-80z" fill="#c3c3c3"/><path d="m160 216v-8h8v8h8v8h-8v8h-8v-8h-8v-8z" fill="#3f48cc"/><path d="m200 192v24h-24v8h32v-32z" fill="#000"/></g><g stroke="#000" stroke-width="10"><path d="m44 60h168v104h-168z"/><path d="m12 36h72v40h-72z" fill="#22b14c"/><path d="m164 148h80v40h-80z" fill="#b5e61d"/></g><g stroke-width=".8"><g fill="#000"><path d="m208 40v-8h8v8h8v8h8v8h8v8h-8v8h-8v8h-24v-8h-8v-24h8v-8z"/><path d="m32 144h8v8h-8z"/><path d="m32 176h8v8h-8z"/><path d="m16 160h8v8h-8z"/><path d="m48 136v8h-8v-8z"/><path d="m24 168h8v8h-8z"/><path d="m24 152h8v8h-8z"/><path d="m48 144h8v8h-8z"/><path d="m48 176h8v8h-8z"/><path d="m64 160h8v8h-8z"/><path d="m48 184v8h-8v-8z"/><path d="m56 168h8v8h-8z"/><path d="m56 152h8v8h-8z"/></g><path d="m40 144v8h-8v8h-8v8h8v8h8v8h8v-8h8v-8h8v-8h-8v-8h-8v-8z" fill="#b5e61d"/></g></svg>